<?xml version="1.0" encoding="utf-8"?>
<!-- Generator: Adobe Illustrator 25.0.0, SVG Export Plug-In . SVG Version: 6.00 Build 0)  -->
<svg version="1.1" id="Livello_1" xmlns="http://www.w3.org/2000/svg" xmlns:xlink="http://www.w3.org/1999/xlink" x="0px" y="0px"
	 viewBox="0 0 194 61.91" style="enable-background:new 0 0 194 61.91;" xml:space="preserve">
<style type="text/css">
	.st0{fill:url(#SVGID_1_);}
	.st1{fill:#185092;}
	.st2{fill:url(#SVGID_2_);}
</style>
<g>
	<g>
		<g>
			<linearGradient id="SVGID_1_" gradientUnits="userSpaceOnUse" x1="25.5053" y1="0.7218" x2="25.5053" y2="50.3516">
				<stop  offset="0.1311" style="stop-color:#4A96D2"/>
				<stop  offset="0.995" style="stop-color:#CECBD1"/>
			</linearGradient>
			<path class="st0" d="M44.15,36.38L15.82,50.35l-0.03-7.15l24.92-12.06c2.93-1.42,2.95-5.54,0.04-6.99L1.26,4.41L8.5,0.72
				L44.19,18.5C51.62,22.2,51.6,32.71,44.15,36.38z"/>
			<path class="st1" d="M40.76,24.15L1.26,4.41v53.14l7.29,3.74V15.31l30.36,14.94c0.63,0.25,1.03,0.66,1.25,1.15l0.55-0.27
				C43.64,29.72,43.66,25.6,40.76,24.15z"/>
		</g>
		<linearGradient id="SVGID_2_" gradientUnits="userSpaceOnUse" x1="8.5542" y1="38.2962" x2="49.7488" y2="38.2962">
			<stop  offset="0.0871" style="stop-color:#4A96D2"/>
			<stop  offset="0.8695" style="stop-color:#185092"/>
		</linearGradient>
		<path class="st2" d="M49.74,27.64c-0.07,3.48-1.94,6.94-5.59,8.74L15.82,50.35l-0.03-7.15l0,0l-0.02-24.32l-7.22-3.57v45.97
			l35.67-17.69c3.39-1.68,5.53-5.11,5.53-8.86v-7.12C49.75,27.61,49.75,27.62,49.74,27.64z"/>
	</g>
	<g>
		<g>
			<path class="st1" d="M66.15,13.26h8.68c2.1,0,4.1,0.23,5.99,0.7c1.89,0.46,3.54,1.22,4.95,2.26c1.41,1.04,2.53,2.39,3.36,4.05
				c0.83,1.66,1.24,3.68,1.24,6.05c0,2.1-0.4,3.96-1.2,5.56c-0.8,1.6-1.89,2.95-3.24,4.04c-1.36,1.09-2.93,1.91-4.71,2.48
				c-1.78,0.56-3.65,0.84-5.6,0.84h-9.46V13.26z M71.94,33.95h3c1.33,0,2.58-0.13,3.73-0.4c1.15-0.27,2.14-0.72,2.99-1.34
				c0.84-0.62,1.5-1.44,1.98-2.46c0.48-1.01,0.72-2.26,0.72-3.72c0-1.27-0.24-2.38-0.72-3.32c-0.48-0.94-1.13-1.72-1.95-2.33
				c-0.82-0.61-1.77-1.07-2.87-1.38c-1.1-0.31-2.26-0.46-3.47-0.46h-3.41V33.95z"/>
			<path class="st1" d="M108.76,36.15c-0.89,1.13-2.02,1.99-3.37,2.6c-1.36,0.61-2.77,0.92-4.23,0.92c-1.38,0-2.69-0.22-3.91-0.66
				c-1.22-0.44-2.29-1.07-3.19-1.89c-0.9-0.82-1.61-1.8-2.13-2.95c-0.52-1.15-0.78-2.43-0.78-3.85c0-1.42,0.26-2.7,0.78-3.85
				c0.52-1.15,1.23-2.13,2.13-2.95c0.9-0.82,1.97-1.45,3.19-1.89c1.22-0.44,2.53-0.66,3.91-0.66c1.28,0,2.45,0.22,3.5,0.66
				c1.05,0.44,1.94,1.07,2.67,1.89c0.73,0.82,1.29,1.8,1.69,2.95c0.4,1.15,0.59,2.43,0.59,3.85v1.72h-12.9
				c0.22,1.05,0.7,1.89,1.45,2.51c0.74,0.62,1.66,0.94,2.74,0.94c0.91,0,1.69-0.2,2.32-0.6c0.63-0.4,1.18-0.92,1.65-1.56
				L108.76,36.15z M104.05,28.3c0.02-0.93-0.28-1.72-0.93-2.38c-0.64-0.66-1.47-0.99-2.48-0.99c-0.62,0-1.16,0.1-1.63,0.29
				c-0.47,0.2-0.87,0.45-1.21,0.75c-0.33,0.31-0.59,0.66-0.78,1.06c-0.19,0.4-0.29,0.83-0.32,1.27H104.05z"/>
			<path class="st1" d="M130.27,39.23h-5.12v-2.35h-0.07c-0.22,0.32-0.51,0.64-0.87,0.97c-0.36,0.33-0.78,0.63-1.26,0.9
				c-0.48,0.27-1.01,0.49-1.59,0.66c-0.58,0.17-1.18,0.26-1.8,0.26c-1.33,0-2.55-0.23-3.63-0.68c-1.09-0.45-2.02-1.09-2.8-1.91
				c-0.78-0.82-1.38-1.79-1.8-2.92c-0.42-1.12-0.63-2.36-0.63-3.71c0-1.25,0.19-2.44,0.57-3.58c0.38-1.14,0.93-2.15,1.63-3.03
				c0.7-0.88,1.56-1.58,2.58-2.11c1.01-0.53,2.16-0.79,3.45-0.79c1.16,0,2.24,0.18,3.24,0.53c1,0.35,1.82,0.96,2.47,1.82h0.07V11.5
				h5.56V39.23z M125.15,30.32c0-1.34-0.39-2.43-1.17-3.26c-0.78-0.83-1.87-1.25-3.28-1.25c-1.41,0-2.5,0.42-3.28,1.25
				c-0.78,0.83-1.17,1.92-1.17,3.26c0,1.35,0.39,2.43,1.17,3.26c0.78,0.83,1.87,1.25,3.28,1.25c1.41,0,2.5-0.42,3.28-1.25
				C124.76,32.75,125.15,31.67,125.15,30.32z"/>
			<path class="st1" d="M143.94,37h-0.07c-0.62,0.95-1.44,1.64-2.47,2.05c-1.03,0.42-2.11,0.62-3.24,0.62
				c-0.84,0-1.65-0.12-2.43-0.35c-0.78-0.23-1.46-0.58-2.06-1.05c-0.59-0.46-1.06-1.04-1.41-1.72c-0.35-0.68-0.52-1.48-0.52-2.38
				c0-1.03,0.19-1.89,0.57-2.6c0.38-0.71,0.9-1.3,1.56-1.76c0.65-0.46,1.4-0.83,2.24-1.08c0.84-0.26,1.71-0.45,2.61-0.57
				c0.9-0.12,1.8-0.2,2.71-0.22c0.9-0.02,1.74-0.04,2.5-0.04c0-0.98-0.35-1.75-1.06-2.33c-0.7-0.57-1.54-0.86-2.5-0.86
				c-0.91,0-1.75,0.19-2.5,0.57c-0.75,0.38-1.43,0.9-2.02,1.56l-2.97-3.01c1.04-0.95,2.25-1.67,3.63-2.15
				c1.38-0.48,2.82-0.72,4.3-0.72c1.63,0,2.97,0.2,4.02,0.61c1.05,0.4,1.89,1,2.52,1.78c0.63,0.78,1.07,1.74,1.32,2.88
				c0.25,1.14,0.37,2.45,0.37,3.94v9.06h-5.12V37z M142.57,31.42c-0.42,0-0.95,0.02-1.58,0.06c-0.63,0.04-1.24,0.14-1.82,0.31
				c-0.58,0.17-1.08,0.43-1.48,0.77c-0.41,0.34-0.61,0.82-0.61,1.43c0,0.66,0.28,1.15,0.85,1.47c0.57,0.32,1.16,0.48,1.78,0.48
				c0.54,0,1.07-0.07,1.58-0.22c0.51-0.15,0.96-0.35,1.35-0.62c0.4-0.27,0.71-0.61,0.95-1.03c0.23-0.42,0.35-0.9,0.35-1.47v-1.17
				H142.57z"/>
			<path class="st1" d="M151.17,11.5h5.56v27.73h-5.56V11.5z"/>
			<path class="st1" d="M175.92,39.23h-5.34v-2.42h-0.07c-0.2,0.34-0.45,0.68-0.76,1.03c-0.31,0.34-0.69,0.65-1.13,0.92
				c-0.44,0.27-0.95,0.49-1.52,0.66c-0.57,0.17-1.19,0.26-1.85,0.26c-1.41,0-2.55-0.21-3.43-0.64c-0.88-0.43-1.56-1.02-2.04-1.78
				s-0.8-1.65-0.96-2.68c-0.16-1.03-0.24-2.14-0.24-3.34v-9.83h5.56v8.73c0,0.51,0.02,1.05,0.06,1.6c0.04,0.55,0.15,1.06,0.33,1.52
				c0.19,0.46,0.47,0.84,0.85,1.14c0.38,0.29,0.93,0.44,1.65,0.44c0.72,0,1.3-0.13,1.74-0.39c0.44-0.26,0.78-0.6,1.02-1.03
				c0.23-0.43,0.39-0.91,0.46-1.45c0.07-0.54,0.11-1.1,0.11-1.69v-8.88h5.56V39.23z"/>
			<path class="st1" d="M188.97,26.65c-0.82-1-1.89-1.5-3.23-1.5c-0.47,0-0.93,0.11-1.37,0.33c-0.45,0.22-0.67,0.6-0.67,1.14
				c0,0.44,0.23,0.76,0.69,0.97c0.46,0.21,1.04,0.39,1.74,0.55c0.7,0.16,1.46,0.33,2.26,0.51c0.8,0.18,1.56,0.47,2.26,0.86
				c0.7,0.39,1.28,0.92,1.74,1.6c0.46,0.67,0.69,1.57,0.69,2.7c0,1.15-0.25,2.1-0.76,2.84c-0.51,0.75-1.16,1.35-1.95,1.8
				c-0.79,0.45-1.68,0.77-2.67,0.95c-0.99,0.18-1.97,0.27-2.93,0.27c-1.26,0-2.53-0.18-3.82-0.53c-1.29-0.35-2.37-0.98-3.26-1.89
				l3.37-3.71c0.52,0.64,1.09,1.12,1.72,1.45c0.63,0.33,1.37,0.5,2.21,0.5c0.64,0,1.22-0.09,1.74-0.27
				c0.52-0.18,0.78-0.52,0.78-1.01c0-0.46-0.23-0.81-0.69-1.05c-0.46-0.23-1.04-0.43-1.74-0.59c-0.7-0.16-1.46-0.33-2.26-0.51
				c-0.8-0.18-1.56-0.46-2.26-0.83c-0.7-0.37-1.29-0.89-1.74-1.56c-0.46-0.67-0.69-1.57-0.69-2.7c0-1.05,0.22-1.96,0.65-2.71
				c0.43-0.76,1-1.38,1.71-1.87c0.7-0.49,1.51-0.85,2.43-1.08c0.91-0.23,1.84-0.35,2.78-0.35c1.19,0,2.38,0.17,3.6,0.51
				c1.21,0.34,2.24,0.95,3.08,1.83L188.97,26.65z"/>
		</g>
		<path class="st1" d="M66.76,44.75h0.83v2.52h3.19v-2.52h0.83v6.08h-0.83v-2.78H67.6v2.78h-0.83V44.75z"/>
		<path class="st1" d="M73.02,44.75h3.97v0.77h-3.14v1.81h2.92v0.77h-2.92v1.95h3.29v0.77h-4.12V44.75z"/>
		<path class="st1" d="M80.08,44.75h0.76l2.63,6.08H82.5l-0.62-1.5h-2.93l-0.61,1.5h-0.97L80.08,44.75z M81.58,48.6l-1.15-2.79
			h-0.02l-1.16,2.79H81.58z"/>
		<path class="st1" d="M84.1,44.75h0.83v5.31h2.82v0.77H84.1V44.75z"/>
		<path class="st1" d="M89.71,45.52h-1.98v-0.77h4.79v0.77h-1.98v5.31h-0.83V45.52z"/>
		<path class="st1" d="M93.24,44.75h0.83v2.52h3.19v-2.52h0.83v6.08h-0.83v-2.78h-3.19v2.78h-0.83V44.75z"/>
		<path class="st1" d="M103.78,46.06c-0.17-0.22-0.39-0.4-0.66-0.52c-0.27-0.12-0.54-0.18-0.82-0.18c-0.35,0-0.66,0.06-0.94,0.19
			c-0.28,0.13-0.52,0.31-0.72,0.53c-0.2,0.22-0.36,0.49-0.46,0.79c-0.11,0.3-0.17,0.62-0.17,0.97c0,0.32,0.05,0.62,0.16,0.91
			c0.1,0.29,0.25,0.54,0.45,0.76c0.2,0.22,0.44,0.39,0.72,0.52c0.28,0.13,0.6,0.19,0.96,0.19c0.35,0,0.66-0.07,0.93-0.21
			c0.27-0.14,0.49-0.34,0.68-0.6l0.7,0.52c-0.05,0.06-0.13,0.15-0.24,0.27c-0.12,0.12-0.27,0.23-0.46,0.35
			c-0.19,0.12-0.42,0.22-0.69,0.31c-0.27,0.09-0.58,0.13-0.93,0.13c-0.49,0-0.92-0.09-1.31-0.28c-0.39-0.18-0.72-0.42-1-0.72
			c-0.27-0.3-0.49-0.63-0.63-1.01c-0.14-0.37-0.22-0.76-0.22-1.14c0-0.47,0.08-0.9,0.23-1.3c0.16-0.4,0.38-0.74,0.66-1.03
			c0.28-0.29,0.62-0.51,1.01-0.67c0.39-0.16,0.83-0.24,1.3-0.24c0.4,0,0.8,0.08,1.19,0.23c0.39,0.15,0.71,0.39,0.96,0.71
			L103.78,46.06z"/>
		<path class="st1" d="M107.36,44.75h0.76l2.63,6.08h-0.97l-0.62-1.5h-2.93l-0.61,1.5h-0.97L107.36,44.75z M108.86,48.6l-1.15-2.79
			h-0.02l-1.16,2.79H108.86z"/>
		<path class="st1" d="M111.38,44.75h2.16c0.39,0,0.72,0.05,0.97,0.16c0.26,0.11,0.46,0.24,0.6,0.4c0.15,0.16,0.25,0.35,0.31,0.55
			c0.06,0.2,0.09,0.4,0.09,0.59c0,0.19-0.04,0.38-0.11,0.56c-0.07,0.18-0.17,0.34-0.3,0.49c-0.13,0.15-0.29,0.27-0.48,0.37
			c-0.19,0.1-0.4,0.16-0.63,0.18l1.75,2.78h-1.04l-1.56-2.68h-0.93v2.68h-0.83V44.75z M112.21,47.43h1.09
			c0.16,0,0.32-0.01,0.48-0.04c0.16-0.03,0.3-0.07,0.43-0.14c0.12-0.07,0.22-0.17,0.3-0.3c0.08-0.13,0.11-0.3,0.11-0.5
			c0-0.21-0.04-0.37-0.11-0.5c-0.07-0.13-0.18-0.23-0.3-0.3c-0.12-0.07-0.27-0.12-0.43-0.14c-0.16-0.03-0.32-0.04-0.48-0.04h-1.09
			V47.43z"/>
		<path class="st1" d="M116.51,44.75h3.97v0.77h-3.14v1.81h2.92v0.77h-2.92v1.95h3.29v0.77h-4.12V44.75z"/>
		<path class="st1" d="M124.06,49.56c0.15,0.22,0.34,0.39,0.58,0.49c0.23,0.11,0.48,0.16,0.72,0.16c0.14,0,0.28-0.02,0.43-0.06
			c0.14-0.04,0.28-0.11,0.4-0.19c0.12-0.09,0.22-0.19,0.29-0.32c0.08-0.13,0.11-0.27,0.11-0.44c0-0.23-0.08-0.41-0.23-0.54
			c-0.15-0.12-0.34-0.23-0.56-0.31c-0.22-0.08-0.47-0.16-0.73-0.24c-0.26-0.08-0.51-0.18-0.73-0.32c-0.22-0.14-0.41-0.32-0.56-0.55
			c-0.15-0.23-0.22-0.55-0.22-0.94c0-0.18,0.04-0.37,0.12-0.57c0.08-0.2,0.2-0.38,0.37-0.55c0.17-0.17,0.38-0.31,0.65-0.42
			c0.26-0.11,0.58-0.17,0.95-0.17c0.34,0,0.66,0.05,0.96,0.14c0.31,0.09,0.58,0.28,0.81,0.56l-0.68,0.61
			c-0.11-0.16-0.25-0.29-0.44-0.39c-0.19-0.1-0.41-0.15-0.65-0.15c-0.23,0-0.42,0.03-0.58,0.09s-0.28,0.14-0.37,0.23
			c-0.09,0.09-0.16,0.2-0.2,0.3s-0.06,0.21-0.06,0.3c0,0.26,0.08,0.46,0.23,0.59c0.15,0.14,0.34,0.25,0.56,0.33
			c0.22,0.09,0.47,0.16,0.73,0.23c0.26,0.07,0.51,0.16,0.73,0.29c0.22,0.12,0.41,0.29,0.56,0.5c0.15,0.21,0.22,0.5,0.22,0.86
			c0,0.29-0.06,0.56-0.17,0.79c-0.11,0.23-0.27,0.43-0.46,0.59c-0.19,0.16-0.42,0.28-0.68,0.37c-0.26,0.09-0.54,0.13-0.83,0.13
			c-0.39,0-0.77-0.07-1.12-0.21c-0.35-0.14-0.63-0.35-0.84-0.64L124.06,49.56z"/>
		<path class="st1" d="M129.98,48.23l-2.33-3.49h1.07l1.68,2.67l1.73-2.67h1.02l-2.33,3.49v2.59h-0.83V48.23z"/>
		<path class="st1" d="M133.86,49.56c0.15,0.22,0.34,0.39,0.58,0.49c0.23,0.11,0.48,0.16,0.72,0.16c0.14,0,0.28-0.02,0.43-0.06
			c0.14-0.04,0.28-0.11,0.4-0.19c0.12-0.09,0.22-0.19,0.29-0.32c0.08-0.13,0.11-0.27,0.11-0.44c0-0.23-0.08-0.41-0.23-0.54
			c-0.15-0.12-0.34-0.23-0.56-0.31c-0.22-0.08-0.47-0.16-0.73-0.24s-0.51-0.18-0.73-0.32c-0.22-0.14-0.41-0.32-0.56-0.55
			c-0.15-0.23-0.22-0.55-0.22-0.94c0-0.18,0.04-0.37,0.12-0.57c0.08-0.2,0.2-0.38,0.37-0.55c0.17-0.17,0.38-0.31,0.65-0.42
			c0.26-0.11,0.58-0.17,0.95-0.17c0.34,0,0.66,0.05,0.96,0.14c0.31,0.09,0.58,0.28,0.81,0.56l-0.68,0.61
			c-0.11-0.16-0.25-0.29-0.44-0.39c-0.19-0.1-0.41-0.15-0.65-0.15c-0.23,0-0.42,0.03-0.58,0.09c-0.15,0.06-0.28,0.14-0.37,0.23
			c-0.09,0.09-0.16,0.2-0.2,0.3s-0.06,0.21-0.06,0.3c0,0.26,0.08,0.46,0.23,0.59c0.15,0.14,0.34,0.25,0.56,0.33
			c0.22,0.09,0.47,0.16,0.73,0.23c0.26,0.07,0.51,0.16,0.73,0.29c0.22,0.12,0.41,0.29,0.56,0.5c0.15,0.21,0.22,0.5,0.22,0.86
			c0,0.29-0.06,0.56-0.17,0.79c-0.11,0.23-0.27,0.43-0.46,0.59c-0.19,0.16-0.42,0.28-0.68,0.37c-0.26,0.09-0.54,0.13-0.83,0.13
			c-0.39,0-0.77-0.07-1.12-0.21c-0.35-0.14-0.63-0.35-0.84-0.64L133.86,49.56z"/>
		<path class="st1" d="M139.61,45.52h-1.98v-0.77h4.79v0.77h-1.98v5.31h-0.83V45.52z"/>
		<path class="st1" d="M143.14,44.75h3.97v0.77h-3.14v1.81h2.92v0.77h-2.92v1.95h3.29v0.77h-4.12V44.75z"/>
		<path class="st1" d="M148.21,44.75h1.24l1.95,4.6h0.04l1.94-4.6h1.24v6.08h-0.83v-5h-0.02l-2.07,5h-0.56l-2.07-5h-0.02v5h-0.83
			V44.75z"/>
		<path class="st1" d="M156.14,49.56c0.15,0.22,0.34,0.39,0.58,0.49c0.23,0.11,0.48,0.16,0.72,0.16c0.14,0,0.28-0.02,0.43-0.06
			c0.14-0.04,0.28-0.11,0.4-0.19c0.12-0.09,0.22-0.19,0.29-0.32c0.08-0.13,0.11-0.27,0.11-0.44c0-0.23-0.08-0.41-0.23-0.54
			c-0.15-0.12-0.34-0.23-0.56-0.31c-0.22-0.08-0.47-0.16-0.73-0.24s-0.51-0.18-0.73-0.32c-0.22-0.14-0.41-0.32-0.56-0.55
			c-0.15-0.23-0.22-0.55-0.22-0.94c0-0.18,0.04-0.37,0.12-0.57c0.08-0.2,0.2-0.38,0.37-0.55c0.17-0.17,0.38-0.31,0.65-0.42
			c0.26-0.11,0.58-0.17,0.95-0.17c0.34,0,0.66,0.05,0.96,0.14c0.31,0.09,0.58,0.28,0.81,0.56l-0.68,0.61
			c-0.11-0.16-0.25-0.29-0.44-0.39c-0.19-0.1-0.41-0.15-0.65-0.15c-0.23,0-0.42,0.03-0.58,0.09c-0.15,0.06-0.28,0.14-0.37,0.23
			c-0.09,0.09-0.16,0.2-0.2,0.3s-0.06,0.21-0.06,0.3c0,0.26,0.08,0.46,0.23,0.59c0.15,0.14,0.34,0.25,0.56,0.33
			c0.22,0.09,0.47,0.16,0.73,0.23c0.26,0.07,0.51,0.16,0.73,0.29c0.22,0.12,0.41,0.29,0.56,0.5c0.15,0.21,0.22,0.5,0.22,0.86
			c0,0.29-0.06,0.56-0.17,0.79c-0.11,0.23-0.27,0.43-0.46,0.59c-0.19,0.16-0.42,0.28-0.68,0.37c-0.26,0.09-0.54,0.13-0.83,0.13
			c-0.39,0-0.77-0.07-1.12-0.21c-0.35-0.14-0.63-0.35-0.84-0.64L156.14,49.56z"/>
		<path class="st1" d="M168.09,47.43v3c-0.15,0.09-0.32,0.17-0.51,0.24c-0.19,0.07-0.39,0.13-0.59,0.18
			c-0.21,0.05-0.41,0.08-0.63,0.11c-0.21,0.02-0.41,0.03-0.59,0.03c-0.52,0-0.99-0.09-1.39-0.26c-0.41-0.17-0.75-0.4-1.03-0.7
			s-0.5-0.63-0.64-1.02c-0.15-0.39-0.22-0.8-0.22-1.22c0-0.45,0.08-0.87,0.24-1.26c0.16-0.39,0.38-0.73,0.66-1.01
			c0.28-0.29,0.62-0.51,1.01-0.67c0.39-0.16,0.82-0.24,1.29-0.24c0.57,0,1.03,0.07,1.39,0.21c0.36,0.14,0.66,0.33,0.9,0.58
			l-0.59,0.63c-0.25-0.24-0.52-0.41-0.81-0.5c-0.28-0.09-0.58-0.14-0.89-0.14c-0.35,0-0.67,0.06-0.96,0.19
			c-0.28,0.13-0.53,0.3-0.73,0.52c-0.2,0.22-0.36,0.47-0.47,0.77c-0.11,0.3-0.17,0.61-0.17,0.94c0,0.34,0.06,0.66,0.18,0.96
			c0.12,0.29,0.29,0.55,0.5,0.77c0.21,0.22,0.47,0.39,0.76,0.51c0.29,0.12,0.6,0.18,0.95,0.18c0.3,0,0.57-0.03,0.84-0.08
			c0.26-0.05,0.49-0.13,0.67-0.24V48.2h-1.36v-0.77H168.09z"/>
		<path class="st1" d="M169.44,44.75h2.16c0.39,0,0.72,0.05,0.97,0.16c0.26,0.11,0.46,0.24,0.6,0.4c0.15,0.16,0.25,0.35,0.31,0.55
			c0.06,0.2,0.09,0.4,0.09,0.59c0,0.19-0.04,0.38-0.11,0.56c-0.07,0.18-0.17,0.34-0.3,0.49c-0.13,0.15-0.29,0.27-0.48,0.37
			c-0.19,0.1-0.4,0.16-0.63,0.18l1.75,2.78h-1.04l-1.56-2.68h-0.93v2.68h-0.83V44.75z M170.27,47.43h1.09
			c0.16,0,0.32-0.01,0.48-0.04s0.3-0.07,0.43-0.14c0.12-0.07,0.22-0.17,0.3-0.3c0.08-0.13,0.11-0.3,0.11-0.5
			c0-0.21-0.04-0.37-0.11-0.5c-0.07-0.13-0.18-0.23-0.3-0.3c-0.12-0.07-0.27-0.12-0.43-0.14s-0.32-0.04-0.48-0.04h-1.09V47.43z"/>
		<path class="st1" d="M177.39,50.98c-0.47,0-0.9-0.08-1.29-0.24c-0.39-0.16-0.73-0.39-1.01-0.67c-0.28-0.29-0.5-0.62-0.66-1.01
			c-0.16-0.39-0.24-0.81-0.24-1.26c0-0.45,0.08-0.87,0.24-1.26c0.16-0.39,0.38-0.73,0.66-1.01c0.28-0.29,0.62-0.51,1.01-0.67
			c0.39-0.16,0.82-0.24,1.29-0.24s0.9,0.08,1.29,0.24c0.39,0.16,0.73,0.39,1.01,0.67s0.5,0.62,0.66,1.01
			c0.16,0.39,0.24,0.81,0.24,1.26c0,0.45-0.08,0.87-0.24,1.26c-0.16,0.39-0.38,0.73-0.66,1.01c-0.28,0.29-0.62,0.51-1.01,0.67
			C178.29,50.9,177.86,50.98,177.39,50.98z M177.39,50.21c0.35,0,0.67-0.06,0.96-0.19c0.28-0.13,0.53-0.3,0.73-0.52
			c0.2-0.22,0.36-0.47,0.47-0.77c0.11-0.29,0.16-0.61,0.16-0.94c0-0.33-0.05-0.65-0.16-0.94c-0.11-0.29-0.27-0.55-0.47-0.77
			c-0.2-0.22-0.45-0.39-0.73-0.52c-0.28-0.13-0.6-0.19-0.96-0.19s-0.67,0.06-0.96,0.19c-0.28,0.13-0.53,0.3-0.73,0.52
			c-0.2,0.22-0.36,0.47-0.47,0.77c-0.11,0.3-0.17,0.61-0.17,0.94c0,0.33,0.06,0.65,0.17,0.94c0.11,0.3,0.27,0.55,0.47,0.77
			c0.2,0.22,0.45,0.39,0.73,0.52C176.72,50.14,177.04,50.21,177.39,50.21z"/>
		<path class="st1" d="M182.34,44.75v3.73c0,0.19,0.03,0.38,0.08,0.59c0.05,0.2,0.14,0.39,0.26,0.56c0.12,0.17,0.28,0.31,0.48,0.42
			c0.2,0.11,0.44,0.16,0.73,0.16c0.29,0,0.53-0.05,0.73-0.16c0.2-0.11,0.36-0.25,0.48-0.42c0.12-0.17,0.21-0.36,0.26-0.56
			c0.05-0.2,0.08-0.4,0.08-0.59v-3.73h0.83v3.86c0,0.35-0.06,0.68-0.18,0.97c-0.12,0.29-0.29,0.54-0.5,0.75
			c-0.21,0.21-0.47,0.37-0.76,0.49c-0.29,0.11-0.6,0.17-0.94,0.17c-0.34,0-0.65-0.06-0.94-0.17c-0.29-0.12-0.54-0.28-0.76-0.49
			c-0.21-0.21-0.38-0.46-0.5-0.75c-0.12-0.29-0.18-0.61-0.18-0.97v-3.86H182.34z"/>
		<path class="st1" d="M187.56,44.75h2.16c0.39,0,0.72,0.05,0.97,0.16c0.26,0.11,0.46,0.24,0.6,0.4c0.15,0.16,0.25,0.35,0.31,0.55
			s0.09,0.4,0.09,0.59s-0.03,0.39-0.09,0.59c-0.06,0.2-0.16,0.39-0.31,0.55c-0.15,0.16-0.35,0.3-0.6,0.4
			c-0.25,0.11-0.58,0.16-0.97,0.16h-1.33v2.68h-0.83V44.75z M188.39,47.43h1.09c0.16,0,0.32-0.01,0.48-0.04s0.3-0.07,0.43-0.14
			c0.12-0.07,0.22-0.17,0.3-0.3c0.08-0.13,0.11-0.3,0.11-0.5c0-0.21-0.04-0.37-0.11-0.5c-0.07-0.13-0.18-0.23-0.3-0.3
			s-0.27-0.12-0.43-0.14s-0.32-0.04-0.48-0.04h-1.09V47.43z"/>
	</g>
</g>
</svg>
